<?xml version="1.0" encoding="UTF-8" standalone="no"?>
<svg
   viewBox="0 0 100 100"
   version="1.1"
   id="svg1"
   sodipodi:docname="00.svg"
   inkscape:version="1.4 (86a8ad7, 2024-10-11)"
   xmlns:inkscape="http://www.inkscape.org/namespaces/inkscape"
   xmlns:sodipodi="http://sodipodi.sourceforge.net/DTD/sodipodi-0.dtd"
   xmlns="http://www.w3.org/2000/svg"
   xmlns:svg="http://www.w3.org/2000/svg">
  <defs
     id="defs1" />
  <sodipodi:namedview
     id="namedview1"
     pagecolor="#ffffff"
     bordercolor="#000000"
     borderopacity="0.25"
     inkscape:showpageshadow="2"
     inkscape:pageopacity="0.0"
     inkscape:pagecheckerboard="0"
     inkscape:deskcolor="#d1d1d1"
     inkscape:zoom="4"
     inkscape:cx="61.5"
     inkscape:cy="73.625"
     inkscape:window-width="1920"
     inkscape:window-height="1129"
     inkscape:window-x="1912"
     inkscape:window-y="-8"
     inkscape:window-maximized="1"
     inkscape:current-layer="svg1"
     showgrid="true">
    <inkscape:grid
       id="grid2"
       units="px"
       originx="0"
       originy="0"
       spacingx="1"
       spacingy="1"
       empcolor="#0099e5"
       empopacity="0.30196078"
       color="#0099e5"
       opacity="0.14901961"
       empspacing="5"
       enabled="true"
       visible="true" />
  </sodipodi:namedview>
  <g
     transform="matrix(0.26458333,0,0,0.26458333,-42.712861,-15.143595)"
     id="g1"
     style="stroke:#00bf2a;stroke-opacity:1;stroke-width:1.00157482;stroke-dasharray:none;paint-order:markers stroke fill;stroke-dashoffset:0;stroke-linejoin:bevel"
     inkscape:label="trace">
    <path
       fill="#338000"
       d="m 253.19802,59.952971 c 13.78818,3.879392 19.66566,13.595973 16.5,30.055688 -2.962,6.2924 -7.45416,11.130861 -14.91412,12.945381 -26.36185,0.67527 -32.49567,5.81424 -32.49567,5.81424 -6.96956,3.49853 -10.55576,9.93299 -13.53033,17.19788 -0.70618,18.6947 4.90306,31.11698 22.34606,39.76898 C 252.63504,172.82968 273.906,174.181 292.5,187 c 15.17,13.505 24.17,30.339 27,50.5 -1.01493,68.88219 -34.24019,70.84794 -89.97884,94.1428 -11.00277,5.6293 -16.31031,9.77563 -18.72013,16.58693 -2.14269,6.05623 -2.16261,11.06255 0.19897,21.27027 3.596,10.596 10.762,17.429 21.5,20.5 53.333,0.333 160,1 160,1 0.0566,0.008 6.83231,-0.0653 6.86865,7.24931 0.0513,7.71046 -6.70823,7.62961 -6.70823,7.62961 L 231.5,406 c -25.62767,-6.22837 -39.16783,-27.87532 -36.07183,-56.85732 1.36747,-8.137 5.31558,-15.65355 13.16046,-22.77066 3.87423,-3.51482 26.62814,-14.32727 40.07778,-17.15764 8.48212,-2.62217 -0.28456,-0.0598 7.96304,-2.60396 56.29128,-17.40606 50.89169,-74.7768 41.26659,-86.16735 -6.919,-16.588 -17.88797,-24.39574 -34.96897,-29.80774 C 225.00151,177.9605 194.81343,181.39777 194.5,128.5 c 2.80696,-12.90283 2.75216,-22.94731 28.06829,-33.481825 7.15251,-2.976294 17.27387,-4.322515 28.73339,-5.253259 4.96415,-0.403189 7.24365,-2.802914 5.90624,-10.660955 C 256.22041,75.818772 253.286,75.7845 251.5,75 c -59.89414,-5.100399 -72.56936,46.38426 -73,51.5 -6.74486,56.71863 32.09723,68.711 76.9741,78.81188 23.747,9.61 32.68411,23.75686 30.60411,49.47986 -4.003,18.493 -13.476,27.6417 -28.20903,33.98752 -20.70283,6.95267 -19.2893,8.10528 -38.86952,14.4955 -17.72993,7.36083 -32.09761,13.68128 -39.49966,41.22524 -5.397,26.634 0.46767,51.24292 21.86467,68.27592 11.97088,9.09656 20.51809,11.28502 20.51809,11.28502 l 185.31483,-0.26973 0.47045,11.33297 c 0,0 -154.9815,-0.11998 -185.54862,-0.34298 -18.05243,-0.44791 -52.68158,-19.82001 -57.23155,-61.9609 -3.15256,-38.54181 3.57038,-71.07149 48.71319,-84.7566 0,0 -0.57228,-0.81307 42.51297,-16.36826 8.85814,-4.19797 12.66623,-15.77581 12.66623,-15.77581 3.38923,-11.49786 -0.70324,-18.33611 -0.70324,-18.33611 -13.46465,-22.06953 -29.9862,-20.05949 -45.16034,-24.89906 C 189.7552,201.90468 175.71162,193.35318 167.49996,166.5 c -5.48634,-14.1895 -5.34881,-28.98348 -4,-44 6.169,-27.4994 20.88558,-45.700272 48,-58 4.64393,-1.873808 8.02925,-2.788676 12.15099,-3.584776 9.68002,-1.662643 19.22705,-1.958195 29.54703,-0.962253 z"
       id="path1"
       inkscape:label="pTrace"
       style="display:inline;stroke:none;stroke-width:1.00157;stroke-linejoin:bevel;stroke-dasharray:none;stroke-dashoffset:0;stroke-opacity:1;paint-order:markers stroke fill;fill:#808080;fill-opacity:1"
       sodipodi:nodetypes="cccscccccscccccccscccccssccccccccccccccccscscccccc" />
  </g>
  <g
     transform="matrix(0.26458333,0,0,0.26458333,-42.712861,-15.143595)"
     id="g2"
     style="stroke:#00bf2a;stroke-opacity:1;stroke-width:1.00157482;stroke-dasharray:none;paint-order:markers stroke fill;stroke-dashoffset:0;stroke-linejoin:bevel"
     inkscape:label="milling">
    <path
       fill="#338000"
       d="m 406.56397,303.61782 -18.47935,-0.67717 -37.25385,-37.44505 v -82.65934 l 7.00549,-5.46153 L 375.5,177.5 v -48 h -27 l -4.5,-5 -0.0661,-50.800747 20.63055,0.09271 -0.13868,-7.792882 c 0,0 1.91323,-4.757593 7.63546,-4.773665 5.86377,-0.017 8.01908,4.360383 8.01908,4.360383 L 380.43913,86.759993 359.1797,86.869945 359.5,114.5 c 16.67,-0.167 33.337,0 50,0.5 5.126,2.553 6.293,6.386 3.5,11.5 -1.271,1.383 -2.771,2.383 -4.5,3 h -18 v 48 L 501.55906,177.6811 501.5,129.5 h -74 c -6.577,-5.082 -6.577,-10.082 0,-15 h 98 v -25 h -12 c -0.929,-1.4361 -2.095,-2.7695 -3.5,-4 l 0.10677,-22.893234 c 0.22415,-0.325397 0.0377,-3.118777 7.72407,-3.106766 7.28762,0.164403 7.50642,2.885665 7.59623,3.039103 0,0 -0.01,11.996478 0.0729,11.960897 l 13.58672,0.06484 c 0,0 0.20116,54.95039 0.1501,55.14869 L 516.5,129.5 v 48 l 16.41099,0.16703 c 0,0 6.15299,5.22928 6.15667,5.26004 l 0.30547,82.52504 -37.56305,37.20527 -19.21815,0.009 -0.93139,132.1593 -74.98904,0.46649 z"
       id="path2"
       inkscape:label="pMilling"
       style="display:inline;stroke:none;stroke-width:1.00157;stroke-linejoin:bevel;stroke-dasharray:none;stroke-dashoffset:0;stroke-opacity:1;paint-order:markers stroke fill;fill:#808080;fill-opacity:1"
       sodipodi:nodetypes="cccccccccccccccccccccccccccccccccccccccccccccc" />
  </g>
  <rect
     style="fill:#ffffff;stroke:none;stroke-width:0.265;stroke-linejoin:bevel;stroke-dasharray:none;stroke-dashoffset:0;stroke-opacity:1;paint-order:markers stroke fill;fill-opacity:1"
     id="rect2"
     width="43.8125"
     height="18.25"
     x="53.0625"
     y="34.4375"
     inkscape:label="part1"
     ry="2" />
  <path
     style="fill:#ffffff;stroke:none;stroke-width:0.265;stroke-linejoin:bevel;stroke-dasharray:none;stroke-dashoffset:0;stroke-opacity:1;paint-order:markers stroke fill;fill-opacity:1"
     d="m 55.0625,55.125 11.051938,-0.04698 0.0046,-2.318787 3.330495,0.0074 0.02282,2.334341 25.621957,0.175218 c -0.118926,-4.49e-4 -6.664667,7.083171 -6.664667,7.083171 l -26.600412,-0.1713"
     id="path3"
     sodipodi:nodetypes="cccccccc"
     inkscape:label="part2" />
  <path
     style="fill:#ffffff;stroke:none;stroke-width:0.265;stroke-linejoin:bevel;stroke-dasharray:none;stroke-dashoffset:0;stroke-opacity:1;paint-order:markers stroke fill;fill-opacity:1"
     d="m 67.8125,65.1875 14.123912,-0.03467 -14.05383,7.793013"
     id="path4"
     sodipodi:nodetypes="ccc"
     inkscape:label="drill1" />
  <path
     style="fill:#ffffff;stroke:none;stroke-width:0.265;stroke-linejoin:bevel;stroke-dasharray:none;stroke-dashoffset:0;stroke-opacity:1;paint-order:markers stroke fill;fill-opacity:1"
     d="m 67.911612,76.80384 13.771141,-7.938973 -0.04239,10.415744 -13.658665,8.872341"
     id="path5"
     sodipodi:nodetypes="cccc"
     inkscape:label="drill2" />
  <path
     style="fill:#ffffff;stroke:none;stroke-width:0.265;stroke-linejoin:bevel;stroke-dasharray:none;stroke-dashoffset:0;stroke-opacity:1;paint-order:markers stroke fill;fill-opacity:1"
     d="M 67.981694,92.058281 81.706418,83.258244 81.6875,96.75 67.9375,96.6875"
     id="path6"
     sodipodi:nodetypes="cccc"
     inkscape:label="drill3" />
</svg>
