<?xml version="1.0" encoding="UTF-8"?>
<svg
   version="1.1"
   width="260px"
   height="512px"
   viewbox="0 0 260 512"
   id="svg20"
   xmlns:inkscape="http://www.inkscape.org/namespaces/inkscape"
   xmlns:sodipodi="http://sodipodi.sourceforge.net/DTD/sodipodi-0.dtd"
   xmlns="http://www.w3.org/2000/svg"
   xmlns:svg="http://www.w3.org/2000/svg">

  <g
     id="body"
     transform="translate(-279.43051,1.7355932)">
    <path
       fill="#808080"
       d="m 296.5,-0.5 c 49,0 98,0 147,0 5.273,2.22117 7.107,6.22117 5.5,12 -1.214,1.5488 -2.714,2.7155 -4.5,3.5 -48,0.3333 -96,0.6667 -144,1 -0.5,0.5 -1,1 -1.5,1.5 -0.802,8.0492 -0.635,16.0492 0.5,24 11.986,0.8326 23.986,1.3326 36,1.5 1.952,0.3661 3.618,1.1995 5,2.5 0.487,0.9734 0.987,1.9734 1.5,3 0.5,15.9965 0.667,31.9965 0.5,48 9.006,-0.1664 18.006,2e-4 27,0.5 6.956,6.069 6.289,11.235 -2,15.5 -12.338,-0.167 -24.671,0 -37,0.5 -4.5,1.833 -7.667,5 -9.5,9.5 -0.667,24 -0.667,48 0,72 1.833,4.5 5,7.667 9.5,9.5 13,0.333 26,0.667 39,1 4.361,2.226 5.861,5.726 4.5,10.5 -0.833,1.5 -2,2.667 -3.5,3.5 -9.252,1.417 -18.585,1.917 -28,1.5 -0.166,8.673 0,17.34 0.5,26 1.011,0.837 2.178,1.17 3.5,1 43.17,0.332 86.17,-0.001 129,-1 0.993,-8.484 1.326,-17.151 1,-26 -27.002,0.167 -54.002,0 -81,-0.5 -0.873,-1.045 -1.873,-1.878 -3,-2.5 -3.231,-5.093 -2.231,-9.259 3,-12.5 31,-0.333 62,-0.667 93,-1 5.027,-1.853 8.027,-5.353 9,-10.5 1.163,-23.496 1.33,-47.163 0.5,-71 -1.808,-4.474 -4.974,-7.641 -9.5,-9.5 -31,-0.333 -62,-0.667 -93,-1 -5.025,-3.301 -6.025,-7.468 -3,-12.5 0.929,-0.8149 1.929,-1.6482 3,-2.5 26.998,-0.5 53.998,-0.6666 81,-0.5 0,-12.6667 0,-25.3333 0,-38 -38.001,0.1667 -76.001,0 -114,-0.5 -5.58,-5.4865 -5.247,-10.4865 1,-15 51.667,-0.3333 103.333,-0.6667 155,-1 0.556,-0.3826 0.889,-0.8826 1,-1.5 1.156,-7.4887 1.322,-15.1554 0.5,-23 -0.5,-0.5 -1,-1 -1.5,-1.5 -16,-0.3333 -32,-0.6667 -48,-1 -5.466,-5.56603 -5.132,-10.73269 1,-15.5 16.667,0 33.333,0 50,0 6.167,1.99328 10.667,5.99328 13.5,12 1.417,9.2521 1.917,18.5854 1.5,28 -0.405,8.3126 -4.405,14.1459 -12,17.5 -10.254,1.4262 -20.588,1.9262 -31,1.5 0,13.3333 0,26.6667 0,40 10.69,3.357 17.69,10.357 21,21 0.167,25.669 0,51.335 -0.5,77 -2.832,11.497 -9.832,19.164 -21,23 -0.333,10.333 -0.667,20.667 -1,31 -2.333,6.333 -6.667,10.667 -13,13 -12.783,25.232 -25.283,50.565 -37.5,76 -4.138,7.605 -8.305,15.271 -12.5,23 -3.068,2.583 -6.235,4.916 -9.5,7 -6.394,2.431 -12.727,2.431 -19,0 -5.182,-2.015 -9.349,-5.348 -12.5,-10 -16,-32 -32,-64 -48,-96 -6.333,-2.333 -10.667,-6.667 -13,-13 -0.333,-10.333 -0.667,-20.667 -1,-31 -11.168,-3.836 -18.168,-11.503 -21,-23 -0.667,-25.667 -0.667,-51.333 0,-77 3.019,-10.851 9.852,-17.851 20.5,-21 0,-13.3333 0,-26.6667 0,-40 -35.938,6.5602 -50.105,-8.1065 -42.5,-44 2.263,-7.09264 6.763,-12.09264 13.5,-15 z"
       id="pBody" />
  </g>
  <g
     id="whiteHead"
     transform="translate(-278.85198,2.3141243)">
    <path
       fill="#d3d3d3"
       d="m 358.5,263.5 c 34.007,-0.333 68.007,0 102,1 -14.695,30.225 -30.028,60.058 -46,89.5 -4.856,2.496 -9.022,1.662 -12.5,-2.5 -14.783,-29.232 -29.283,-58.565 -43.5,-88 z"
       id="pWhiteHead" />
  </g>
  <g
     id="firstRay"
     transform="translate(-280.00904,-9.8350282)">
    <path
       fill="#800000"
       d="m 401.5,440.5 c 0,-0.333 0,-0.667 0,-1 -0.167,-15.67 0,-31.337 0.5,-47 5.43,-6.784 10.43,-6.45 15,1 0.167,7.833 0.333,15.667 0.5,23.5 0.124,8.905 -0.376,17.738 -1.5,26.5 -6.061,4.63 -10.895,3.63 -14.5,-3 z"
       id="pFirstRay" />
  </g>
  <g
     id="secondRay"
     transform="translate(-280.58757,-19.091525)">
    <path
       fill="red"
       d="m 411.5,511.5 c -1.667,0 -3.333,0 -5,0 -1.634,-1.472 -3.134,-3.138 -4.5,-5 -0.667,-13 -0.667,-26 0,-39 1.167,-1.167 2.333,-2.333 3.5,-3.5 5.231,-1.724 9.065,-0.224 11.5,4.5 0.667,12.333 0.667,24.667 0,37 -1.021,2.85 -2.854,4.85 -5.5,6 z"
       id="pSecondRay" />
  </g>
  <g
     id="leftLay"
     transform="matrix(0.82825534,0,0,1,-208.05495,-0.57853107)">
    <path
       style="opacity:1"
       fill="#010101"
       d="m 384.5,499.5 c 0.823,1.955 0.99,3.955 0.5,6 -1.332,2.16 -2.832,4.16 -4.5,6 -41.667,0 -83.333,0 -125,0 -6.624,-5.218 -6.624,-10.385 0,-15.5 41.667,-0.667 83.333,-0.667 125,0 1.527,1.032 2.86,2.199 4,3.5 z"
       id="pLeftLay" />
  </g>
  <g
     id="rightLay"
     transform="matrix(0.82825534,0,0,1,-63.583566,-0.39240647)"
     style="clip-rule:evenodd;fill-rule:evenodd;image-rendering:optimizeQuality;shape-rendering:geometricPrecision;text-rendering:geometricPrecision">
    <path
       style="opacity:1"
       fill="#010101"
       d="m 384.5,499.5 c 0.823,1.955 0.99,3.955 0.5,6 -1.332,2.16 -2.832,4.16 -4.5,6 -41.667,0 -83.333,0 -125,0 -6.624,-5.218 -6.624,-10.385 0,-15.5 41.667,-0.667 83.333,-0.667 125,0 1.527,1.032 2.86,2.199 4,3.5 z"
       id="pRightLay" />
  </g>
</svg>
